<?xml version="1.0" encoding="UTF-8" standalone="no"?>
<svg xmlns="http://www.w3.org/2000/svg" width="1024" height="1024" viewBox="0 0 1024 1024">
<path d="M 382,810 Z" fill="black"/>
<path d="M 228,727 Z" fill="black"/>
<path d="M 782,701 L 782,838 L 811,838 L 811,702 L 812,701 Z" fill="black"/>
<path d="M 649,701 L 649,725 L 687,725 L 688,724 L 689,725 L 689,838 L 718,838 L 718,725 L 719,724 L 720,725 L 758,725 L 758,701 Z" fill="black"/>
<path d="M 594,701 L 595,702 L 595,838 L 624,838 L 624,701 Z" fill="black"/>
<path d="M 442,701 L 442,838 L 471,838 L 471,765 L 470,764 L 471,763 L 471,762 L 470,761 L 470,751 L 471,750 L 472,751 L 472,752 L 474,754 L 474,755 L 477,758 L 477,759 L 479,761 L 479,762 L 482,765 L 482,766 L 484,768 L 484,769 L 487,772 L 487,773 L 490,776 L 490,777 L 493,780 L 493,781 L 496,784 L 496,785 L 499,788 L 499,789 L 502,792 L 502,793 L 505,796 L 505,797 L 508,800 L 508,801 L 511,804 L 511,805 L 514,808 L 514,809 L 517,812 L 517,813 L 520,816 L 520,817 L 524,821 L 524,822 L 526,824 L 526,825 L 529,828 L 529,829 L 532,832 L 532,833 L 535,836 L 535,837 L 536,838 L 562,838 L 562,701 L 533,701 L 533,785 L 534,786 L 534,789 L 533,790 L 532,789 L 532,788 L 530,786 L 530,785 L 528,783 L 528,782 L 525,779 L 525,778 L 523,776 L 523,775 L 520,772 L 520,771 L 518,769 L 518,768 L 515,765 L 515,764 L 512,761 L 512,760 L 510,758 L 510,757 L 507,754 L 507,753 L 505,751 L 505,750 L 502,747 L 502,746 L 500,744 L 500,743 L 497,740 L 497,739 L 494,736 L 494,735 L 491,732 L 491,731 L 489,729 L 489,728 L 486,725 L 486,724 L 483,721 L 483,720 L 480,717 L 480,716 L 478,714 L 478,713 L 475,710 L 475,709 L 472,706 L 472,705 L 469,702 L 469,701 Z" fill="black"/>
<path d="M 343,701 L 343,702 L 342,703 L 342,704 L 341,705 L 341,707 L 340,708 L 340,710 L 339,711 L 339,713 L 338,714 L 338,715 L 337,716 L 337,718 L 336,719 L 336,720 L 335,721 L 335,723 L 334,724 L 334,726 L 333,727 L 333,728 L 332,729 L 332,731 L 331,732 L 331,734 L 330,735 L 330,736 L 329,737 L 329,739 L 328,740 L 328,742 L 327,743 L 327,744 L 326,745 L 326,747 L 325,748 L 325,749 L 324,750 L 324,752 L 323,753 L 323,755 L 322,756 L 322,757 L 321,758 L 321,760 L 320,761 L 320,763 L 319,764 L 319,766 L 318,767 L 318,768 L 317,769 L 317,771 L 316,772 L 316,773 L 315,774 L 315,776 L 314,777 L 314,779 L 313,780 L 313,782 L 312,783 L 312,784 L 311,785 L 311,787 L 310,788 L 310,790 L 309,791 L 309,792 L 308,793 L 308,795 L 307,796 L 307,797 L 306,798 L 306,800 L 305,801 L 305,803 L 304,804 L 304,806 L 303,807 L 303,808 L 302,809 L 302,811 L 301,812 L 301,813 L 300,814 L 300,816 L 299,817 L 299,819 L 298,820 L 298,821 L 297,822 L 297,824 L 296,825 L 296,827 L 295,828 L 295,829 L 294,830 L 294,832 L 293,833 L 293,834 L 292,835 L 292,837 L 291,838 L 322,838 L 323,837 L 323,835 L 324,834 L 324,832 L 325,831 L 325,830 L 326,829 L 326,827 L 327,826 L 327,825 L 328,824 L 328,822 L 329,821 L 329,819 L 330,818 L 330,817 L 331,816 L 331,814 L 332,813 L 332,811 L 333,810 L 333,809 L 335,807 L 341,807 L 342,808 L 343,807 L 380,807 L 381,808 L 382,807 L 383,807 L 384,808 L 384,810 L 385,811 L 385,813 L 386,814 L 386,815 L 387,816 L 387,818 L 388,819 L 388,821 L 389,822 L 389,824 L 390,825 L 390,827 L 391,828 L 391,829 L 392,830 L 392,832 L 393,833 L 393,835 L 394,836 L 394,838 L 426,838 L 425,837 L 425,835 L 424,834 L 424,833 L 423,832 L 423,830 L 422,829 L 422,827 L 421,826 L 421,825 L 420,824 L 420,822 L 419,821 L 419,819 L 418,818 L 418,816 L 417,815 L 417,814 L 416,813 L 416,811 L 415,810 L 415,808 L 414,807 L 414,806 L 413,805 L 413,803 L 412,802 L 412,800 L 411,799 L 411,798 L 410,797 L 410,795 L 409,794 L 409,792 L 408,791 L 408,789 L 407,788 L 407,787 L 406,786 L 406,784 L 405,783 L 405,781 L 404,780 L 404,779 L 403,778 L 403,776 L 402,775 L 402,773 L 401,772 L 401,771 L 400,770 L 400,768 L 399,767 L 399,765 L 398,764 L 398,762 L 397,761 L 397,760 L 396,759 L 396,757 L 395,756 L 395,754 L 394,753 L 394,752 L 393,751 L 393,749 L 392,748 L 392,746 L 391,745 L 391,744 L 390,743 L 390,741 L 389,740 L 389,738 L 388,737 L 388,735 L 387,734 L 387,733 L 386,732 L 386,730 L 385,729 L 385,727 L 384,726 L 384,724 L 383,723 L 383,722 L 382,721 L 382,719 L 381,718 L 381,716 L 380,715 L 380,714 L 379,713 L 379,711 L 378,710 L 378,708 L 377,707 L 377,706 L 376,705 L 376,703 L 375,702 L 375,701 Z" fill="black"/>
<path d="M 191,701 L 191,725 L 229,725 L 230,726 L 230,838 L 259,838 L 259,726 L 260,725 L 298,725 L 298,701 Z" fill="black"/>
<path d="M 374,675 L 375,675 Z" fill="black"/>
<path d="M 379,647 Z" fill="black"/>
<path d="M 456,622 Z" fill="black"/>
<path d="M 389,617 Z" fill="black"/>
<path d="M 603,601 L 603,615 L 619,615 L 620,614 L 622,616 L 622,671 L 621,672 L 636,672 L 636,616 L 637,615 L 654,615 L 654,601 Z" fill="black"/>
<path d="M 561,601 L 561,672 L 576,672 L 576,601 Z" fill="black"/>
<path d="M 439,601 L 439,672 L 440,672 L 441,673 L 442,672 L 452,672 L 453,673 L 454,672 L 454,601 Z" fill="black"/>
<path d="M 345,601 L 345,603 L 346,604 L 346,606 L 347,607 L 347,608 L 348,609 L 348,611 L 349,612 L 349,613 L 350,614 L 350,616 L 351,617 L 351,618 L 352,619 L 352,621 L 353,622 L 353,624 L 354,625 L 354,626 L 355,627 L 355,629 L 356,630 L 356,632 L 357,633 L 357,634 L 358,635 L 358,637 L 359,638 L 359,639 L 360,640 L 360,642 L 361,643 L 361,644 L 362,645 L 362,647 L 363,648 L 363,650 L 364,651 L 364,652 L 365,653 L 365,655 L 366,656 L 366,657 L 367,658 L 367,660 L 368,661 L 368,663 L 369,664 L 369,665 L 370,666 L 370,668 L 371,669 L 371,670 L 372,671 L 372,673 L 385,673 L 386,672 L 386,671 L 387,670 L 387,668 L 388,667 L 388,666 L 389,665 L 389,663 L 390,662 L 390,660 L 391,659 L 391,658 L 392,657 L 392,655 L 393,654 L 393,652 L 394,651 L 394,650 L 395,649 L 395,647 L 396,646 L 396,644 L 397,643 L 397,642 L 398,641 L 398,639 L 399,638 L 399,636 L 400,635 L 400,634 L 401,633 L 401,631 L 402,630 L 402,628 L 403,627 L 403,626 L 404,625 L 404,623 L 405,622 L 405,620 L 406,619 L 406,618 L 407,617 L 407,615 L 408,614 L 408,612 L 409,611 L 409,609 L 410,608 L 410,607 L 411,606 L 411,604 L 412,603 L 412,601 L 397,601 L 397,602 L 396,603 L 396,605 L 395,606 L 395,608 L 394,609 L 394,610 L 393,611 L 393,613 L 392,614 L 392,616 L 391,617 L 391,619 L 390,620 L 390,622 L 389,623 L 389,625 L 388,626 L 388,628 L 387,629 L 387,630 L 386,631 L 386,633 L 385,634 L 385,636 L 384,637 L 384,639 L 383,640 L 383,642 L 382,643 L 382,645 L 381,646 L 381,648 L 380,649 L 380,651 L 379,652 L 378,651 L 378,650 L 377,649 L 377,647 L 376,646 L 376,644 L 375,643 L 375,641 L 374,640 L 374,639 L 373,638 L 373,636 L 372,635 L 372,633 L 371,632 L 371,630 L 370,629 L 370,627 L 369,626 L 369,624 L 368,623 L 368,622 L 367,621 L 367,619 L 366,618 L 366,616 L 365,615 L 365,613 L 364,612 L 364,610 L 363,609 L 363,608 L 362,607 L 362,605 L 361,604 L 361,602 L 360,601 Z" fill="black"/>
<path d="M 505,600 L 504,601 L 501,601 L 500,602 L 497,602 L 495,604 L 494,604 L 493,605 L 492,605 L 488,609 L 488,610 L 487,611 L 487,612 L 486,613 L 486,615 L 485,616 L 485,625 L 486,626 L 486,628 L 487,629 L 487,630 L 488,631 L 488,632 L 491,635 L 492,635 L 494,637 L 495,637 L 496,638 L 498,638 L 500,640 L 503,640 L 504,641 L 505,641 L 506,642 L 508,642 L 509,643 L 510,643 L 511,644 L 512,644 L 513,645 L 514,645 L 515,646 L 515,647 L 516,648 L 516,655 L 511,660 L 509,660 L 508,661 L 500,661 L 499,660 L 496,660 L 495,659 L 492,659 L 491,658 L 489,658 L 488,657 L 487,657 L 486,656 L 485,656 L 485,669 L 486,670 L 488,670 L 489,671 L 492,671 L 493,672 L 497,672 L 498,673 L 512,673 L 513,672 L 516,672 L 517,671 L 519,671 L 520,670 L 521,670 L 523,668 L 524,668 L 529,663 L 529,662 L 530,661 L 530,659 L 531,658 L 531,654 L 532,653 L 532,649 L 531,648 L 531,644 L 530,643 L 530,642 L 528,640 L 528,639 L 526,637 L 525,637 L 523,635 L 522,635 L 521,634 L 520,634 L 519,633 L 518,633 L 517,632 L 515,632 L 514,631 L 513,631 L 512,630 L 510,630 L 509,629 L 508,629 L 507,628 L 506,628 L 505,627 L 504,627 L 500,623 L 500,617 L 505,612 L 518,612 L 519,613 L 521,613 L 522,614 L 524,614 L 525,615 L 526,615 L 527,616 L 529,616 L 528,615 L 528,603 L 527,603 L 526,602 L 524,602 L 523,601 L 519,601 L 518,600 Z" fill="black"/>
<path d="M 427,350 L 427,351 Z" fill="black"/>
<path d="M 426,180 L 425,181 L 416,181 L 415,182 L 411,182 L 410,183 L 407,183 L 406,184 L 404,184 L 403,185 L 404,185 L 405,186 L 406,186 L 407,187 L 408,187 L 410,189 L 411,189 L 412,190 L 413,190 L 414,191 L 415,191 L 416,192 L 417,192 L 418,193 L 419,193 L 420,194 L 421,194 L 423,196 L 424,196 L 425,197 L 426,197 L 427,198 L 428,198 L 430,200 L 431,200 L 432,201 L 433,201 L 435,203 L 436,203 L 437,204 L 438,204 L 440,206 L 441,206 L 443,208 L 444,208 L 446,210 L 447,210 L 449,212 L 450,212 L 453,215 L 454,215 L 455,216 L 454,217 L 444,217 L 443,218 L 437,218 L 438,219 L 439,219 L 446,226 L 447,226 L 466,245 L 466,246 L 471,251 L 471,252 L 474,255 L 474,256 L 477,259 L 477,260 L 479,262 L 479,263 L 481,265 L 481,266 L 482,267 L 482,268 L 483,269 L 483,270 L 485,272 L 485,273 L 486,274 L 486,275 L 487,276 L 487,277 L 488,278 L 488,279 L 489,280 L 489,281 L 488,282 L 482,276 L 481,276 L 476,271 L 475,271 L 472,268 L 471,268 L 469,266 L 468,266 L 466,264 L 465,264 L 463,262 L 462,262 L 460,260 L 459,260 L 458,259 L 457,259 L 456,258 L 455,258 L 453,256 L 452,256 L 451,255 L 450,255 L 449,254 L 448,254 L 447,253 L 445,253 L 444,252 L 443,252 L 442,251 L 441,251 L 440,250 L 438,250 L 437,249 L 435,249 L 434,248 L 432,248 L 431,247 L 428,247 L 427,246 L 424,246 L 423,245 L 417,245 L 416,244 L 394,244 L 393,245 L 388,245 L 387,246 L 384,246 L 383,247 L 380,247 L 379,248 L 377,248 L 376,249 L 374,249 L 373,250 L 372,250 L 371,251 L 369,251 L 368,252 L 367,252 L 366,253 L 365,253 L 363,255 L 362,255 L 361,256 L 360,256 L 359,257 L 358,257 L 356,259 L 355,259 L 352,262 L 351,262 L 347,266 L 346,266 L 336,276 L 336,277 L 333,280 L 333,281 L 330,284 L 330,285 L 328,287 L 328,288 L 327,289 L 327,290 L 328,290 L 329,289 L 331,289 L 332,288 L 335,288 L 336,287 L 340,287 L 341,286 L 344,286 L 345,285 L 350,285 L 351,284 L 355,284 L 356,283 L 361,283 L 362,282 L 366,282 L 367,281 L 372,281 L 373,280 L 378,280 L 379,279 L 384,279 L 385,278 L 389,278 L 390,277 L 391,278 L 391,279 L 390,280 L 389,280 L 382,287 L 419,287 L 420,288 L 430,288 L 431,289 L 437,289 L 438,290 L 443,290 L 444,291 L 447,291 L 448,292 L 451,292 L 452,293 L 455,293 L 456,294 L 459,294 L 460,295 L 462,295 L 463,296 L 466,296 L 467,297 L 466,298 L 454,298 L 453,299 L 447,299 L 446,300 L 442,300 L 441,301 L 438,301 L 437,302 L 434,302 L 433,303 L 431,303 L 430,304 L 429,304 L 428,305 L 426,305 L 425,306 L 424,306 L 423,307 L 421,307 L 420,308 L 419,308 L 418,309 L 417,309 L 415,311 L 414,311 L 413,312 L 412,312 L 411,313 L 410,313 L 408,315 L 407,315 L 404,318 L 403,318 L 398,323 L 397,323 L 389,331 L 389,332 L 385,336 L 385,337 L 383,339 L 383,340 L 381,342 L 381,343 L 379,345 L 379,346 L 378,347 L 378,348 L 377,349 L 377,350 L 375,352 L 375,353 L 374,354 L 374,356 L 373,357 L 373,358 L 372,359 L 372,360 L 371,361 L 371,363 L 370,364 L 370,366 L 369,367 L 369,369 L 368,370 L 368,373 L 367,374 L 367,378 L 366,379 L 366,384 L 365,385 L 365,410 L 366,411 L 366,416 L 367,417 L 367,420 L 368,421 L 368,422 L 369,422 L 369,421 L 371,419 L 371,418 L 373,416 L 373,415 L 375,413 L 375,412 L 378,409 L 378,408 L 382,404 L 382,403 L 383,402 L 383,399 L 384,398 L 384,396 L 385,395 L 385,393 L 386,392 L 386,391 L 387,390 L 387,388 L 388,387 L 388,385 L 389,384 L 389,382 L 390,381 L 390,380 L 391,379 L 391,377 L 392,376 L 393,377 L 393,390 L 394,390 L 397,387 L 397,386 L 414,369 L 414,368 L 415,367 L 415,366 L 416,365 L 416,364 L 418,362 L 418,361 L 419,360 L 419,359 L 420,358 L 420,357 L 422,355 L 422,354 L 423,353 L 423,352 L 425,350 L 425,349 L 426,348 L 426,347 L 427,346 L 427,345 L 428,344 L 429,345 L 429,357 L 430,357 L 436,351 L 437,351 L 440,348 L 441,348 L 444,345 L 445,345 L 447,343 L 448,343 L 450,341 L 451,341 L 453,339 L 454,339 L 455,338 L 456,338 L 457,337 L 458,337 L 459,336 L 460,336 L 461,335 L 462,335 L 463,334 L 464,334 L 465,333 L 466,333 L 467,332 L 468,332 L 469,331 L 471,331 L 472,330 L 474,330 L 475,329 L 477,329 L 478,328 L 481,328 L 482,327 L 485,327 L 486,326 L 490,326 L 491,325 L 494,325 L 495,326 L 495,327 L 493,329 L 493,330 L 491,332 L 491,333 L 490,334 L 490,335 L 488,337 L 488,338 L 487,339 L 487,340 L 486,341 L 486,342 L 484,344 L 484,345 L 483,346 L 483,347 L 482,348 L 482,349 L 481,350 L 481,351 L 480,352 L 480,353 L 479,354 L 479,355 L 478,356 L 478,357 L 477,358 L 477,360 L 476,361 L 476,362 L 475,363 L 475,364 L 474,365 L 474,367 L 473,368 L 473,369 L 472,370 L 472,372 L 471,373 L 471,374 L 470,375 L 470,377 L 469,378 L 469,380 L 468,381 L 468,383 L 467,384 L 467,386 L 466,387 L 466,389 L 465,390 L 465,391 L 464,392 L 464,395 L 463,396 L 463,398 L 462,399 L 462,402 L 461,403 L 461,406 L 460,407 L 460,410 L 459,411 L 459,414 L 458,415 L 458,419 L 457,420 L 457,424 L 456,425 L 456,430 L 455,431 L 455,436 L 454,437 L 454,444 L 453,445 L 453,453 L 452,454 L 452,465 L 451,466 L 451,518 L 452,519 L 452,529 L 453,530 L 453,531 L 452,532 L 446,532 L 445,533 L 440,533 L 439,534 L 435,534 L 434,535 L 429,535 L 428,536 L 424,536 L 423,537 L 420,537 L 419,538 L 416,538 L 415,539 L 412,539 L 411,540 L 408,540 L 407,541 L 404,541 L 403,542 L 401,542 L 400,543 L 398,543 L 397,544 L 395,544 L 394,545 L 392,545 L 391,546 L 389,546 L 388,547 L 386,547 L 385,548 L 383,548 L 382,549 L 381,549 L 380,550 L 378,550 L 377,551 L 376,551 L 375,552 L 373,552 L 372,553 L 371,553 L 370,554 L 369,554 L 368,555 L 366,555 L 365,556 L 364,556 L 363,557 L 362,557 L 361,558 L 360,558 L 359,559 L 358,559 L 357,560 L 356,560 L 355,561 L 353,561 L 351,563 L 350,563 L 349,564 L 348,564 L 347,565 L 346,565 L 345,566 L 344,566 L 343,567 L 650,567 L 651,568 L 651,567 L 650,566 L 649,566 L 647,564 L 646,564 L 645,563 L 644,563 L 643,562 L 642,562 L 640,560 L 639,560 L 638,559 L 637,559 L 636,558 L 635,558 L 634,557 L 633,557 L 632,556 L 631,556 L 630,555 L 629,555 L 628,554 L 627,554 L 626,553 L 624,553 L 623,552 L 622,552 L 621,551 L 620,551 L 619,550 L 617,550 L 616,549 L 615,549 L 614,548 L 612,548 L 611,547 L 609,547 L 608,546 L 607,546 L 606,545 L 604,545 L 603,544 L 601,544 L 600,543 L 597,543 L 596,542 L 594,542 L 593,541 L 591,541 L 590,540 L 587,540 L 586,539 L 584,539 L 583,538 L 579,538 L 578,537 L 575,537 L 574,536 L 570,536 L 569,535 L 565,535 L 564,534 L 560,534 L 559,533 L 554,533 L 553,532 L 547,532 L 546,531 L 539,531 L 538,530 L 530,530 L 529,529 L 519,529 L 518,528 L 503,528 L 502,527 L 502,526 L 501,525 L 501,523 L 500,522 L 500,520 L 499,519 L 499,516 L 498,515 L 498,513 L 497,512 L 497,510 L 496,509 L 496,505 L 495,504 L 495,501 L 494,500 L 494,497 L 493,496 L 493,492 L 492,491 L 492,486 L 491,485 L 491,479 L 490,478 L 490,472 L 489,471 L 489,459 L 488,458 L 488,428 L 489,427 L 489,414 L 490,413 L 490,405 L 491,404 L 491,398 L 492,397 L 492,393 L 493,392 L 493,388 L 494,387 L 494,383 L 495,382 L 495,379 L 496,378 L 496,375 L 497,374 L 497,371 L 498,370 L 498,368 L 499,367 L 499,364 L 500,363 L 500,361 L 501,360 L 501,358 L 502,357 L 502,355 L 503,354 L 503,352 L 504,351 L 504,349 L 505,348 L 505,347 L 506,346 L 506,344 L 507,343 L 507,341 L 508,340 L 508,339 L 509,338 L 509,337 L 510,336 L 510,335 L 511,334 L 511,332 L 512,331 L 512,330 L 513,329 L 513,328 L 514,327 L 514,326 L 515,325 L 516,325 L 517,326 L 521,326 L 522,327 L 525,327 L 526,328 L 529,328 L 530,329 L 532,329 L 533,330 L 535,330 L 536,331 L 537,331 L 538,332 L 539,332 L 540,333 L 541,333 L 542,334 L 543,334 L 544,335 L 545,335 L 546,336 L 547,336 L 549,338 L 550,338 L 552,340 L 553,340 L 555,342 L 556,342 L 559,345 L 560,345 L 574,359 L 574,360 L 579,365 L 579,366 L 582,369 L 582,370 L 585,373 L 585,374 L 586,375 L 586,376 L 587,377 L 587,375 L 588,374 L 588,369 L 589,368 L 589,363 L 590,362 L 591,363 L 591,364 L 592,365 L 592,366 L 593,367 L 593,368 L 594,369 L 594,370 L 595,371 L 595,373 L 596,374 L 596,375 L 597,376 L 597,377 L 598,378 L 598,379 L 599,380 L 599,381 L 600,382 L 600,384 L 601,385 L 601,386 L 606,391 L 606,392 L 611,397 L 611,398 L 614,401 L 614,402 L 618,406 L 618,407 L 621,410 L 621,411 L 623,413 L 623,414 L 625,416 L 625,417 L 627,419 L 627,420 L 628,421 L 628,422 L 630,424 L 630,425 L 631,426 L 631,427 L 633,429 L 633,430 L 634,431 L 634,432 L 635,433 L 635,434 L 636,435 L 636,433 L 637,432 L 637,431 L 638,430 L 638,428 L 639,427 L 639,425 L 640,424 L 640,421 L 641,420 L 641,416 L 642,415 L 642,407 L 643,406 L 643,397 L 642,396 L 642,386 L 641,385 L 641,381 L 640,380 L 640,377 L 639,376 L 639,373 L 638,372 L 638,370 L 637,369 L 637,367 L 636,366 L 636,365 L 635,364 L 635,362 L 634,361 L 634,360 L 633,359 L 633,358 L 632,357 L 632,356 L 631,355 L 631,354 L 630,353 L 630,352 L 628,350 L 628,349 L 627,348 L 627,347 L 624,344 L 624,343 L 620,339 L 620,338 L 609,327 L 608,327 L 605,324 L 604,324 L 602,322 L 601,322 L 599,320 L 598,320 L 596,318 L 595,318 L 594,317 L 593,317 L 592,316 L 591,316 L 590,315 L 589,315 L 588,314 L 587,314 L 586,313 L 585,313 L 584,312 L 583,312 L 582,311 L 580,311 L 579,310 L 577,310 L 576,309 L 573,309 L 572,308 L 569,308 L 568,307 L 564,307 L 563,306 L 564,305 L 567,305 L 568,304 L 596,304 L 597,305 L 605,305 L 606,306 L 611,306 L 612,307 L 616,307 L 617,308 L 620,308 L 621,309 L 625,309 L 626,310 L 628,310 L 629,311 L 632,311 L 633,312 L 635,312 L 636,313 L 639,313 L 640,314 L 641,314 L 642,315 L 642,313 L 640,311 L 640,310 L 639,309 L 639,308 L 637,306 L 637,305 L 638,304 L 640,304 L 641,305 L 643,305 L 644,306 L 645,306 L 646,307 L 648,307 L 649,308 L 650,308 L 651,309 L 653,309 L 654,310 L 655,310 L 656,311 L 657,311 L 658,312 L 660,312 L 661,313 L 662,313 L 663,314 L 664,314 L 665,315 L 666,315 L 667,316 L 669,316 L 670,317 L 671,317 L 672,318 L 673,318 L 674,319 L 675,319 L 676,320 L 677,320 L 678,321 L 680,321 L 681,322 L 682,322 L 683,323 L 684,323 L 685,324 L 686,324 L 687,325 L 688,325 L 689,326 L 690,326 L 691,327 L 692,327 L 693,328 L 694,328 L 696,330 L 696,327 L 695,326 L 695,325 L 694,324 L 694,322 L 693,321 L 693,320 L 692,319 L 692,318 L 691,317 L 691,316 L 690,315 L 690,314 L 689,313 L 689,312 L 687,310 L 687,309 L 686,308 L 686,307 L 683,304 L 683,303 L 680,300 L 680,299 L 673,292 L 673,291 L 672,290 L 671,290 L 665,284 L 664,284 L 661,281 L 660,281 L 658,279 L 657,279 L 656,278 L 655,278 L 653,276 L 652,276 L 651,275 L 650,275 L 649,274 L 648,274 L 647,273 L 646,273 L 645,272 L 643,272 L 642,271 L 641,271 L 640,270 L 638,270 L 637,269 L 635,269 L 634,268 L 631,268 L 630,267 L 626,267 L 625,266 L 618,266 L 617,265 L 601,265 L 600,266 L 593,266 L 592,267 L 587,267 L 586,268 L 582,268 L 581,269 L 579,269 L 578,270 L 575,270 L 574,271 L 572,271 L 571,272 L 569,272 L 568,273 L 566,273 L 565,274 L 564,274 L 563,275 L 562,275 L 561,276 L 559,276 L 558,277 L 557,277 L 556,278 L 555,278 L 554,279 L 553,279 L 552,280 L 551,280 L 550,281 L 549,281 L 548,282 L 547,282 L 546,283 L 545,283 L 543,285 L 542,285 L 541,286 L 540,286 L 538,288 L 537,288 L 536,289 L 535,289 L 534,288 L 539,283 L 539,282 L 549,272 L 550,272 L 557,265 L 558,265 L 561,262 L 562,262 L 565,259 L 566,259 L 568,257 L 569,257 L 571,255 L 572,255 L 574,253 L 575,253 L 576,252 L 577,252 L 579,250 L 580,250 L 581,249 L 582,249 L 584,247 L 585,247 L 586,246 L 587,246 L 588,245 L 589,245 L 588,244 L 583,244 L 582,243 L 582,242 L 583,241 L 584,241 L 586,239 L 587,239 L 588,238 L 589,238 L 591,236 L 592,236 L 594,234 L 595,234 L 596,233 L 597,233 L 599,231 L 600,231 L 601,230 L 602,230 L 603,229 L 604,229 L 605,228 L 606,228 L 607,227 L 608,227 L 609,226 L 610,226 L 611,225 L 612,225 L 613,224 L 614,224 L 615,223 L 616,223 L 617,222 L 618,222 L 619,221 L 620,221 L 621,220 L 623,220 L 624,219 L 625,219 L 626,218 L 627,218 L 628,217 L 630,217 L 631,216 L 633,216 L 634,215 L 635,215 L 636,214 L 638,214 L 639,213 L 641,213 L 642,212 L 643,212 L 644,211 L 646,211 L 645,210 L 644,210 L 643,209 L 642,209 L 641,208 L 640,208 L 639,207 L 638,207 L 637,206 L 635,206 L 634,205 L 632,205 L 631,204 L 629,204 L 628,203 L 624,203 L 623,202 L 620,202 L 619,201 L 613,201 L 612,200 L 597,200 L 596,201 L 589,201 L 588,202 L 584,202 L 583,203 L 580,203 L 579,204 L 577,204 L 576,205 L 574,205 L 573,206 L 571,206 L 570,207 L 569,207 L 568,208 L 566,208 L 565,209 L 564,209 L 562,211 L 561,211 L 560,212 L 559,212 L 558,213 L 557,213 L 555,215 L 554,215 L 551,218 L 550,218 L 544,224 L 543,224 L 543,225 L 534,234 L 534,235 L 532,237 L 532,238 L 530,240 L 530,241 L 528,243 L 528,244 L 526,246 L 526,247 L 525,248 L 525,249 L 524,250 L 524,251 L 523,252 L 523,253 L 522,254 L 522,255 L 521,256 L 521,258 L 520,259 L 520,260 L 519,261 L 519,263 L 518,264 L 518,266 L 517,267 L 517,269 L 516,270 L 516,273 L 515,274 L 514,273 L 514,262 L 513,261 L 513,255 L 512,254 L 512,249 L 511,248 L 511,245 L 510,244 L 510,242 L 509,241 L 509,239 L 508,238 L 508,236 L 507,235 L 507,233 L 506,232 L 506,231 L 505,230 L 505,229 L 504,228 L 504,227 L 503,226 L 503,225 L 502,224 L 502,223 L 500,221 L 500,220 L 499,219 L 499,218 L 496,215 L 496,214 L 493,211 L 493,210 L 483,200 L 482,200 L 479,197 L 478,197 L 475,194 L 474,194 L 473,193 L 472,193 L 470,191 L 469,191 L 468,190 L 467,190 L 466,189 L 465,189 L 464,188 L 462,188 L 461,187 L 460,187 L 459,186 L 457,186 L 456,185 L 454,185 L 453,184 L 450,184 L 449,183 L 446,183 L 445,182 L 441,182 L 440,181 L 430,181 L 429,180 L 428,180 L 427,181 Z" fill="black"/>
</svg>
